PathFileType	4	(X/Y/Z)	/Users/itak/Documents/Research/Walk-IL/dataset/trc/00341_00011.trc
DataRate	CameraRate	NumFrames	NumMarkers	Units	OrigDataRate	OrigDataStartFrame	OrigNumFrames
100.000000	100.000000	4	53	mm	100.000000	522	697
Frame#	Time	RPSI			LPSI			L3			STRN			T10			C7			CLAV			RBAK			LBAK			LSHO			LUPA			LAEL			LAOL			LWTS			LWPS			LFRA			LIFD			LHPS			LHTS			RSHO			RUPA			RAEL			RAOL			RWTS			RWPS			RFRA			RIFD			RHTS			RHPS			RBHD			LFHD			RFHD			LBHD			LHIP			RHIP			RASI			LASI			LKNE			LTHI			LANK			LTIP			LTOE			LMT1			LMT5			LHEE			RKNE			RTHI			RANK			RTIP			RTOE			RMT1			RMT5			RHEE			
		X1	Y1	Z1	X2	Y2	Z2	X3	Y3	Z3	X4	Y4	Z4	X5	Y5	Z5	X6	Y6	Z6	X7	Y7	Z7	X8	Y8	Z8	X9	Y9	Z9	X10	Y10	Z10	X11	Y11	Z11	X12	Y12	Z12	X13	Y13	Z13	X14	Y14	Z14	X15	Y15	Z15	X16	Y16	Z16	X17	Y17	Z17	X18	Y18	Z18	X19	Y19	Z19	X20	Y20	Z20	X21	Y21	Z21	X22	Y22	Z22	X23	Y23	Z23	X24	Y24	Z24	X25	Y25	Z25	X26	Y26	Z26	X27	Y27	Z27	X28	Y28	Z28	X29	Y29	Z29	X30	Y30	Z30	X31	Y31	Z31	X32	Y32	Z32	X33	Y33	Z33	X34	Y34	Z34	X35	Y35	Z35	X36	Y36	Z36	X37	Y37	Z37	X38	Y38	Z38	X39	Y39	Z39	X40	Y40	Z40	X41	Y41	Z41	X42	Y42	Z42	X43	Y43	Z43	X44	Y44	Z44	X45	Y45	Z45	X46	Y46	Z46	X47	Y47	Z47	X48	Y48	Z48	X49	Y49	Z49	X50	Y50	Z50	X51	Y51	Z51	X52	Y52	Z52	X53	Y53	Z53	

523	5.22	-568.2963256835938	965.9933471679688	397.8733520507812	-446.4395141601562	964.3121948242188	354.3737182617188	-513.9159545898438	1021.790588378906	373.5861511230469	-405.778564453125	1217.611328125	572.3306884765625	-508.3283996582031	1141.373413085938	355.5728149414062	-473.9580688476562	1390.66162109375	375.6608276367188	-416.0729064941406	1340.37890625	521.982666015625	-559.0270385742188	1253.219360351562	362.3383178710938	-389.26611328125	1351.2158203125	323.6922607421875	-301.9205017089844	1365.1875	376.6167297363281	-254.5321350097656	1243.719604492188	333.2904968261719	-237.863037109375	1041.6650390625	347.0392456054688	-316.68994140625	1027.42919921875	315.9071350097656	-226.3299865722656	816.1901245117188	476.2514038085938	-193.7108459472656	797.3391723632812	418.2613830566406	-222.2713623046875	938.9635009765625	364.34619140625	-231.2385559082031	657.0751342773438	502.751953125	-202.1919555664062	726.831787109375	427.6670837402344	-208.9757537841797	738.0675048828125	490.0577392578125	-599.6511840820312	1383.74560546875	491.704345703125	-662.9952392578125	1320.676513671875	509.8697204589844	-705.6954345703125	1065.426025390625	581.8411254882812	-637.6285400390625	1038.836059570312	519.8156127929688	-630.4580078125	861.5868530273438	718.6716918945312	-706.4071655273438	851.5271606445312	721.9830932617188	-708.4102172851562	1005.516052246094	624.0536499023438	-633.9215087890625	695.154052734375	765.77880859375	-632.126220703125	769.0371704101562	770.6974487304688	-698.9368896484375	768.1685791015625	751.4894409179688	-511.4421997070312	1607.166870117188	466.7316589355469	-326.8858642578125	1594.824340820312	562.787353515625	-420.1244812011719	1603.232543945312	601.3428955078125	-391.4493103027344	1593.127807617188	387.432861328125	-320.2211608886719	907.3125610351562	404.2615356445312	-646.83984375	919.144287109375	511.4841003417969	-572.0027465820312	950.6246948242188	594.9371337890625	-339.3213806152344	938.4905395507812	536.0580444335938	-366.3997192382812	454.2147827148438	544.1064453125	-334.1765747070312	591.3638916015625	513.4598388671875	-471.3411865234375	48.77291488647461	503.5266723632812	-407.7075805664062	233.3916778564453	527.5499267578125	-436.5941162109375	42.22154998779297	715.1597900390625	-503.1676025390625	29.52996063232422	668.728515625	-406.0765075683594	43.66052627563477	610.7796020507812	-546.8001098632812	45.84064865112305	501.9541625976562	-651.7949829101562	479.0103454589844	622.2373046875	-640.079833984375	724.165283203125	614.6376953125	-748.1721801757812	233.0348815917969	284.4371337890625	-673.6014404296875	380.0056457519531	555.6368408203125	-712.2136840820312	62.2457160949707	379.1322021484375	-667.5465698242188	101.0310440063477	344.7652893066406	-775.95263671875	143.4540710449219	325.3605041503906	-697.2335205078125	269.4481811523438	256.3908081054688	
524	5.23	-568.455322265625	966.484619140625	407.8688354492188	-447.8673706054688	964.9844360351562	360.8851928710938	-513.9585571289062	1022.471435546875	382.3682556152344	-401.6989135742188	1218.328735351562	578.0970458984375	-508.7413330078125	1142.154296875	363.1977233886719	-473.8787841796875	1391.402954101562	382.95654296875	-413.1633911132812	1341.114624023438	528.062255859375	-558.9844970703125	1253.98291015625	371.1824340820312	-389.9328002929688	1352.103637695312	328.9460144042969	-301.8401184082031	1366.07080078125	380.6168518066406	-254.4301147460938	1244.526611328125	337.2581481933594	-235.9716033935547	1042.745361328125	353.5699768066406	-314.3827209472656	1027.392700195312	321.8126831054688	-222.5560302734375	823.0321044921875	490.1471862792969	-188.8320007324219	802.4808349609375	433.6040954589844	-219.2438354492188	941.2861328125	373.7872009277344	-223.0535125732422	665.3065185546875	523.7619018554688	-195.3654479980469	732.4496459960938	445.8489685058594	-203.1602783203125	746.2263793945312	507.6103515625	-597.3184814453125	1384.361083984375	501.4140014648438	-660.3345336914062	1321.16650390625	520.349609375	-702.3453979492188	1065.111083984375	589.43115234375	-634.7409057617188	1039.4140625	526.5087280273438	-626.6099243164062	858.8953247070312	722.5355224609375	-702.583984375	848.935546875	726.0043334960938	-704.813720703125	1004.586486816406	630.736083984375	-630.3563842773438	691.6941528320312	766.7821044921875	-628.2981567382812	765.440673828125	772.9746704101562	-695.207763671875	765.0866088867188	754.0300903320312	-509.8052978515625	1607.788330078125	474.670166015625	-323.7647094726562	1595.578002929688	567.85498046875	-416.34716796875	1603.786987304688	607.7783813476562	-391.0592651367188	1593.969116210938	393.4711608886719	-320.2100524902344	907.9364624023438	407.0779418945312	-643.6475830078125	919.9672241210938	523.7858276367188	-566.0209350585938	951.5130615234375	604.7911376953125	-335.1310424804688	939.0556030273438	539.3405151367188	-364.7114562988281	453.9974670410156	544.6483764648438	-332.9207763671875	591.476318359375	514.4542846679688	-471.2665710449219	48.80550003051758	503.5325012207031	-407.2532958984375	233.2887115478516	527.6552124023438	-436.4649658203125	41.97193145751953	715.199951171875	-503.1093139648438	29.65476608276367	668.7269287109375	-405.971435546875	43.58712005615234	610.7313232421875	-546.6658935546875	46.06398391723633	501.9216003417969	-642.6809692382812	480.9611511230469	641.0551147460938	-633.4605712890625	726.0162353515625	629.0953979492188	-746.5910034179688	228.3479919433594	310.6651000976562	-665.7935180664062	381.1444091796875	576.7618408203125	-707.553466796875	62.06997299194336	411.5200805664062	-664.1592407226562	99.09026336669922	374.3540954589844	-773.0615234375	140.8481597900391	356.4368896484375	-696.5372924804688	263.67919921875	279.7340393066406	
525	5.24	-568.6233520507812	966.8069458007812	417.829833984375	-449.4144897460938	965.4398193359375	367.3547058105469	-514.0747680664062	1023.113708496094	391.0377807617188	-397.5652160644531	1218.953369140625	583.7305908203125	-509.2052917480469	1142.885375976562	370.8575439453125	-473.845703125	1392.078979492188	390.249267578125	-410.2259826660156	1341.76611328125	534.0565795898438	-558.9786987304688	1254.700927734375	380.0511169433594	-390.633544921875	1352.939331054688	334.1320495605469	-301.85693359375	1366.88330078125	384.5281372070312	-254.4253387451172	1245.289794921875	341.090576171875	-234.0916900634766	1043.854370117188	359.7346801757812	-312.0989074707031	1027.311401367188	327.5362854003906	-218.6998443603516	830.1608276367188	503.4868469238281	-183.8739471435547	808.035888671875	448.3765258789062	-216.1778717041016	943.849365234375	382.8917541503906	-214.8223114013672	674.2357788085938	544.158447265625	-188.4780883789062	738.6465454101562	463.4592895507812	-197.2433166503906	754.9030151367188	524.4932250976562	-594.9110107421875	1384.918579101562	511.1415100097656	-657.5791625976562	1321.60400390625	530.8899536132812	-699.1502075195312	1064.811645507812	597.0335083007812	-632.0416259765625	1039.961547851562	533.241455078125	-623.0510864257812	856.3115234375	726.4373779296875	-699.052001953125	846.4505615234375	730.0279541015625	-701.3820190429688	1003.713928222656	637.4374389648438	-627.1637573242188	688.44580078125	767.9595947265625	-624.8308715820312	762.0338134765625	775.3310546875	-691.8140258789062	762.1798095703125	756.6607666015625	-508.1255493164062	1608.357299804688	482.5619506835938	-320.6037902832031	1596.276123046875	572.7544555664062	-412.480224609375	1604.311889648438	614.0880126953125	-390.6990966796875	1594.704956054688	399.4121704101562	-320.431640625	908.3097534179688	409.7609252929688	-640.2525024414062	920.6661987304688	536.0226440429688	-559.9901123046875	952.3026123046875	614.4269409179688	-331.040283203125	939.5110473632812	542.40771484375	-363.14453125	453.7592163085938	545.1015014648438	-331.9501037597656	591.51416015625	515.322998046875	-471.2529602050781	48.81643676757812	503.5365600585938	-406.9120788574219	233.1978302001953	527.7333984375	-436.3428039550781	41.72027969360352	715.22705078125	-503.045654296875	29.76903915405273	668.7621459960938	-405.8987731933594	43.53376770019531	610.7014770507812	-546.5801391601562	46.24798202514648	501.9002990722656	-633.2196044921875	482.9207153320312	659.3424682617188	-626.6334228515625	727.8862915039062	643.3169555664062	-744.579345703125	222.8076171875	337.511474609375	-657.524658203125	382.1159362792969	597.613037109375	-701.9509887695312	61.72700500488281	444.7363891601562	-659.86572265625	96.59928894042969	404.4558410644531	-769.37451171875	137.6643371582031	388.2841186523438	-695.5194091796875	256.8637390136719	303.5858154296875	
526	5.25	-568.769775390625	966.97900390625	427.7348327636719	-451.0353088378906	965.6854858398438	373.8026733398438	-514.263916015625	1023.731811523438	399.5394897460938	-393.3967590332031	1219.485717773438	589.241943359375	-509.6856689453125	1143.559814453125	378.580810546875	-473.8497924804688	1392.69091796875	397.538818359375	-407.2663879394531	1342.33056640625	539.9749145507812	-558.9977416992188	1255.368286132812	388.9400634765625	-391.355224609375	1353.730712890625	339.3017578125	-301.9670715332031	1367.633178710938	388.3672485351562	-254.5378112792969	1246.01806640625	344.7901000976562	-232.2018737792969	1044.973510742188	365.53515625	-309.8396301269531	1027.197875976562	333.0929260253906	-214.7680816650391	837.52001953125	516.24609375	-178.8733062744141	813.9312744140625	462.5204772949219	-213.0772857666016	946.5993041992188	391.6233215332031	-206.6387939453125	683.7926025390625	563.8370361328125	-181.6105041503906	745.34326171875	480.4199829101562	-191.2770538330078	764.0198364257812	540.6412963867188	-592.4247436523438	1385.412475585938	520.8762817382812	-654.7220458984375	1321.986328125	541.4713745117188	-696.0842895507812	1064.527709960938	604.6755981445312	-629.5257568359375	1040.482543945312	540.0287475585938	-619.7581787109375	853.8268432617188	730.3993530273438	-695.78466796875	844.0726928710938	734.0875244140625	-698.0902709960938	1002.899475097656	644.1932373046875	-624.3184814453125	685.3749389648438	769.2896728515625	-621.6884765625	758.794677734375	777.7745971679688	-688.7354125976562	759.431884765625	759.395263671875	-506.4015197753906	1608.875122070312	490.4148559570312	-317.4002990722656	1596.91064453125	577.4846801757812	-408.5273132324219	1604.799926757812	620.2747802734375	-390.3626708984375	1595.339477539062	405.269775390625	-320.81689453125	908.4473266601562	412.4026489257812	-636.6604614257812	921.2672729492188	548.1664428710938	-553.9264526367188	953.0225830078125	623.8417358398438	-327.080078125	939.845458984375	545.3074951171875	-361.7190551757812	453.4996337890625	545.5089721679688	-331.2777709960938	591.4851684570312	516.1029052734375	-471.300537109375	48.80957412719727	503.5426330566406	-406.6860046386719	233.1309661865234	527.8109130859375	-436.2360534667969	41.48668670654297	715.2514038085938	-502.9799499511719	29.87911415100098	668.8192749023438	-405.8569946289062	43.49975204467773	610.6898803710938	-546.5698852539062	46.38496780395508	501.9104919433594	-623.4546508789062	484.8931274414062	677.0661010742188	-619.5885620117188	729.7644653320312	657.2904663085938	-742.0894775390625	216.5035247802734	364.9452209472656	-648.8184204101562	382.9016723632812	618.1524658203125	-695.3489379882812	61.23311614990234	478.5857543945312	-654.6153564453125	93.61593627929688	434.9540100097656	-764.810791015625	133.9576721191406	420.7574157714844	-694.084228515625	249.0642547607422	327.9990844726562	
